<mxfile host="app.diagrams.net" modified="2024-04-15T20:21:46.481Z" agent="Mozilla/5.0 (Windows NT 10.0; Win64; x64) AppleWebKit/537.36 (KHTML, like Gecko) Chrome/123.0.0.0 Safari/537.36" version="24.2.5" etag="uJgV1WFXCmgno9OgnctP" type="github">
  <diagram name="PÃ¡gina-1" id="m-IBY62FoGXl0SfGjSz_">
    <mxGraphModel>
      <root>
        <mxCell id="0" />
        <mxCell id="1" parent="0" />
      </root>
    </mxGraphModel>
  </diagram>
</mxfile>
